# xmcd CD database file
#
# Track frame offsets:
#	150
#	15628
#	30042
#	43783
#	59377
#	75742
#	89624
#	103416
#	118155
#	134009
#	148360
#	162176
#	174826
#	188753
#	204090
#	216107
#	229888
#	244308
#	256224
#	270350
#	284181
#	299347
#
# Disc length: 4206 seconds
#
# Revision: 0
# Processed by: cddbd v1.5.2PL0 Copyright (c) Steve Scherf et al.
# Submitted via: CDex 2.02
#
DISCID=4b106c16
DTITLE=Tommy Johnson - Canned Heat Blues
DYEAR=1900
DGENRE=Blues
TTITLE0=Canned Heat Blues
TTITLE1=Cool Drink of Water Blues
TTITLE2=Big Road Blues
TTITLE3=Bye Bye Blues
TTITLE4=Maggie Campbell Blues
TTITLE5=I Wonder to Myself
TTITLE6=Slidin' Delta
TTITLE7=Lonesome Home Blues-The Associates
TTITLE8=Stop and Listen Blues-The Mississippi Sheiks
TTITLE9=Down the Big Road Blues-Mattie Delaney
TTITLE10=Jke Leg Blues-Willie Lofton
TTITLE11=Dirty Mistreater-Willie Lofton
TTITLE12=Stop Look and Listen-Kokomo Arnold
TTITLE13=Sad and Lonesome-Bumble Bee Slim
TTITLE14=Rough Road Blues-Bumble Bee Slim
TTITLE15=Going Back Home Blues-Missippi Mudder
TTITLE16=Bo Carter's Advice-Bo Carter
TTITLE17=Ten Pound Hammer-Mose Andrews
TTITLE18=Joliet Bound-Kansas Joe
TTITLE19=Wait and Listen-Fred McMullen
TTITLE20=Saturday Blues-Ishmon Bracey
TTITLE21=Trouble Hearted Blues-Ishmon Bracey
EXTD=
EXTT0=
EXTT1=
EXTT2=
EXTT3=
EXTT4=
EXTT5=
EXTT6=
EXTT7=
EXTT8=
EXTT9=
EXTT10=
EXTT11=
EXTT12=
EXTT13=
EXTT14=
EXTT15=
EXTT16=
EXTT17=
EXTT18=
EXTT19=
EXTT20=
EXTT21=
PLAYORDER=
